# xmcd CD database file generated by OrangeCD 5.2
#
# Track frame offsets:
#	150
#	11962
#	24377
#	37755
#	49745
#	64792
#	76257
#	89967
#	101000
#	110810
#	122372
#
# Disc length: 1811 seconds
#
# Revision: 0
# Processed by: cddbd v1.5.1PL0 Copyright (c) Steve Scherf et al.
# Submitted via: OrangeCD 5.2
#
DISCID=8b07110b
DTITLE=Ray Campi - Rockabilly Ladies
DYEAR=2000
DGENRE=Country
TTITLE0=Until You'Re Mine
TTITLE1=California Cotton Fields
TTITLE2=I'll Go Stepping Too
TTITLE3=Del Rio Boogie
TTITLE4=One Rose
TTITLE5=You Don'T Know My Mind
TTITLE6=Show Me
TTITLE7=When Two Worlds Collide
TTITLE8=How Come You'Re Being So Good To Me
TTITLE9=Hit Parade Of Love
TTITLE10=The Tatooed Lady
EXTD=
EXTT0=
EXTT1=
EXTT2=
EXTT3=
EXTT4=
EXTT5=
EXTT6=
EXTT7=
EXTT8=
EXTT9=
EXTT10=
PLAYORDER=
